FILE "ESPN National Hockey Night (1994)(Sony)(US).img" BINARY
  TRACK 01 MODE1/2352
    INDEX 01 00:00:00
  TRACK 02 AUDIO
    PREGAP 00:02:00
    INDEX 01 17:08:55
  TRACK 03 AUDIO
    INDEX 00 30:00:46
    INDEX 01 30:02:46
  TRACK 04 AUDIO
    INDEX 00 32:43:61
    INDEX 01 32:45:61
  TRACK 05 AUDIO
    INDEX 00 32:52:33
    INDEX 01 32:54:33
  TRACK 06 AUDIO
    INDEX 00 33:55:16
    INDEX 01 33:57:16
  TRACK 07 AUDIO
    INDEX 00 34:58:20
    INDEX 01 35:00:20
